<svg width="128" height="128" viewBox="0 0 128 128" fill="none" xmlns="http://www.w3.org/2000/svg">
<g clip-path="url(#clip0_5368_534)">
<path d="M119.221 90.3248C117.02 84.2209 114.056 78.2651 111.188 72.5077C109.686 69.489 108.132 66.3688 106.715 63.2785C104.972 59.4768 103.233 55.5352 101.553 51.7236C94.9036 36.6402 88.0268 21.0422 78.1755 7.82134C78.0404 7.63809 77.8986 7.4715 77.7884 7.36154C77.665 7.16996 77.5315 6.98005 77.378 6.7918C74.1282 2.80523 69.3568 0.341318 64.2918 0.0331216C59.5705 -0.263414 55.0828 1.38252 51.6845 4.64441C46.5311 9.59056 43.3963 16.0577 40.3783 22.808L39.9946 23.666C35.295 34.178 30.4336 45.0482 25.442 55.6468C19.2459 67.7998 13.7071 78.7866 8.6555 90.1616C3.11672 102.633 3.86746 112.593 10.9528 120.605C15.287 125.506 21.0777 128.001 27.2271 128.001C32.1252 128.001 37.2503 126.417 42.0416 123.204C42.2635 123.057 42.4737 122.89 42.6956 122.689C42.8291 122.596 42.9609 122.504 43.091 122.397C44.771 121.026 46.2408 119.307 47.6638 117.646C48.141 117.086 48.6164 116.53 49.0952 115.997C52.9407 111.69 56.7461 107.302 59.9609 103.577C61.0453 102.318 62.1347 101.063 63.2258 99.8056C65.3362 97.37 67.5184 94.8561 69.6404 92.3523C71.3872 94.8578 73.2924 97.3051 75.1375 99.6723C75.9583 100.729 76.7791 101.78 77.5866 102.841C79.1198 104.848 80.5895 106.984 82.1444 109.245C86.2968 115.28 90.5894 121.523 96.335 125.553C104.803 131.49 112.553 125.146 117.571 118.781C117.709 118.601 117.834 118.424 117.908 118.296C118.065 118.128 118.218 117.953 118.363 117.756C125.087 108.74 120.722 94.4796 119.224 90.3265L119.221 90.3248ZM15.9493 108.082C14.5229 102.704 16.9537 97.5583 19.301 92.5805C19.5746 91.9991 19.8448 91.4277 20.1068 90.8562C24.6879 80.899 29.7346 70.9017 34.4759 61.5725L34.5326 61.5026C36.291 59.0587 40.2732 54.5407 43.0093 54.5407C43.0727 54.5407 43.1327 54.544 43.1928 54.5473C44.1971 54.6256 45.7203 56.5714 46.6312 57.7342C46.8264 57.9841 47.0015 58.2074 47.1517 58.3889C48.4329 59.9383 49.5624 61.6525 50.6584 63.3101C50.9637 63.7732 51.2707 64.238 51.5794 64.6995C53.0975 66.9568 54.7208 69.1758 56.2907 71.3232C58.8982 74.885 61.5909 78.5667 63.8264 82.475L63.406 82.9814C63.1457 83.2946 62.8855 83.6094 62.6219 83.9193C59.2736 87.8976 55.7101 92.0757 51.7245 96.6887C50.2814 98.3596 48.8166 100.169 47.4002 101.915C43.8868 106.251 40.2516 110.734 36.1742 114.206C31.3995 117.318 27.5457 118.209 24.044 117.02C20.337 115.754 17.0087 112.08 15.9493 108.082ZM52.19 48.0035C49.5457 45.393 46.5678 44.0786 43.3196 44.0786C43.0893 44.0786 42.8541 44.0853 42.6189 44.0986C44.9028 39.0842 46.8897 34.6261 48.6865 30.4846L49.0752 29.5834C51.571 23.7926 56.7661 11.7429 62.9455 10.7834C65.101 10.4568 67.2531 11.5047 69.3535 13.917C78.2289 26.01 84.6685 40.3569 90.3408 53.078C87.0526 53.5428 84.3632 54.9455 82.1344 57.3544C79.2499 60.468 77.016 64.0781 74.8556 67.5682C73.6444 69.5257 72.3931 71.5465 71.0418 73.4573C69.3702 70.8418 67.4833 68.3329 65.6582 65.9023C64.2718 64.0581 62.8404 62.149 61.5141 60.2148C61.1054 59.6167 60.6983 59.0187 60.2929 58.4189C57.8689 54.8389 55.3614 51.1355 52.1866 48.0019L52.19 48.0035ZM98.6139 112.911C93.2987 106.688 88.3455 99.8573 83.5541 93.2519C82.2645 91.4743 80.9766 89.6984 79.6853 87.9359C78.7661 86.6848 77.8535 85.277 76.8225 83.5262C77.2763 82.9431 77.7284 82.3617 78.1738 81.7719C78.3056 81.5953 78.4241 81.4204 78.5142 81.2705C79.9522 79.2747 81.2769 77.164 82.5565 75.1232C84.2098 72.4894 85.9181 69.7639 87.88 67.28C90.4642 64.0031 91.6237 63.2251 95.1805 63.8132C97.2543 68.3196 99.4281 72.8625 101.53 77.2589C103.324 81.0056 105.175 84.8806 106.957 88.7105C111.852 99.2375 112.634 107.326 109.229 112.089C108.132 113.475 106.944 114.926 105.549 116.073C104.675 116.796 103.759 117.246 103.579 117.271C103.552 117.301 103.188 117.296 102.291 116.663C101.055 115.794 99.9986 114.547 98.9759 113.341L98.6123 112.913L98.6139 112.911Z" fill="white"/>
</g>
<defs>
<clipPath id="clip0_5368_534">
<rect width="117" height="128" fill="white" transform="translate(5)"/>
</clipPath>
</defs>
</svg>
