<?xml version="1.0" encoding="UTF-8"?>
<svg id="Layer_1" xmlns="http://www.w3.org/2000/svg" version="1.1" viewBox="0 0 249.9 55.3">
  <!-- Generator: Adobe Illustrator 29.3.1, SVG Export Plug-In . SVG Version: 2.1.0 Build 151)  -->
  <defs>
    <style>
      .st0 {
        fill: #fff;
      }
    </style>
  </defs>
  <path class="st0" d="M47.1,37.1c-.8-2.2-1.8-4.3-2.9-6.4-.5-1.1-1.1-2.2-1.6-3.3-.6-1.4-1.2-2.8-1.8-4.1-2.4-5.4-4.8-11-8.4-15.7,0,0,0-.1-.1-.2,0,0,0-.1-.1-.2-1.2-1.4-2.9-2.3-4.7-2.4-1.7-.1-3.3.5-4.5,1.7-1.8,1.8-3,4.1-4,6.5v.3c-1.8,3.8-3.6,7.7-5.3,11.5-2.2,4.3-4.2,8.3-6,12.4-2,4.5-1.7,8,.8,10.9,1.5,1.8,3.6,2.6,5.8,2.6,1.8,0,3.6-.6,5.3-1.7,0,0,.2-.1.2-.2,0,0,0,0,.1-.1.6-.5,1.1-1.1,1.6-1.7.2-.2.3-.4.5-.6,1.4-1.6,2.7-3.1,3.9-4.4.4-.4.8-.9,1.2-1.3.8-.9,1.5-1.8,2.3-2.7.6.9,1.3,1.8,2,2.6.3.4.6.8.9,1.1.5.7,1.1,1.5,1.6,2.3,1.5,2.2,3,4.4,5.1,5.8,3,2.1,5.8-.1,7.6-2.4,0,0,0-.1.1-.2,0,0,.1-.1.2-.2,2.4-3.2.8-8.3.3-9.8ZM10.1,43.4c-.5-1.9.4-3.8,1.2-5.5,0-.2.2-.4.3-.6,1.6-3.6,3.4-7.2,5.2-10.5.6-.9,2.1-2.5,3-2.5s0,0,0,0c.4,0,.9.7,1.2,1.1,0,0,.1.2.2.2.5.6.9,1.2,1.3,1.8.1.2.2.3.3.5.5.8,1.1,1.6,1.7,2.4.9,1.3,1.9,2.6,2.7,4l-.2.2c0,.1-.2.2-.3.3-1.2,1.4-2.4,2.9-3.9,4.6-.5.6-1,1.2-1.5,1.9-1.3,1.6-2.6,3.2-4,4.4-1.7,1.1-3.1,1.4-4.3,1-1.3-.5-2.5-1.8-2.9-3.2ZM23.1,21.9c-.9-.9-2-1.4-3.2-1.4s-.2,0-.3,0c.8-1.8,1.5-3.4,2.2-4.9v-.3c1-2.1,2.9-6.4,5.1-6.7.8-.1,1.5.3,2.3,1.1,3.2,4.3,5.5,9.5,7.5,14-1.2.2-2.1.7-2.9,1.5-1,1.1-1.8,2.4-2.6,3.7-.4.7-.9,1.4-1.4,2.1-.6-.9-1.3-1.8-1.9-2.7-.5-.7-1-1.3-1.5-2-.1-.2-.3-.4-.4-.6-.9-1.3-1.8-2.6-2.9-3.7ZM39.7,45.2c-1.9-2.2-3.7-4.7-5.4-7.1-.5-.6-.9-1.3-1.4-1.9-.3-.4-.7-1-1-1.6.2-.2.3-.4.5-.6,0,0,0-.1.1-.2.5-.7,1-1.5,1.4-2.2.6-.9,1.2-1.9,1.9-2.8.9-1.2,1.3-1.5,2.6-1.2.7,1.6,1.5,3.2,2.3,4.8.6,1.3,1.3,2.7,1.9,4.1,1.2,2.6,2.4,6.2.8,8.4-.4.5-.8,1-1.3,1.4-.3.3-.6.4-.7.4,0,0-.1,0-.5-.2-.4-.3-.8-.8-1.2-1.2v-.2Z"/>
  <g>
    <path class="st0" d="M91.3,42.4c0,.2,0,.3,0,.3,0,.4-.3.5-.8.5h-2.7c-.3,0-.5,0-.6-.2-.1-.1-.3-.3-.4-.5l-2.9-7.4h-14.4l-2.9,7.4c0,.2-.2.4-.4.5-.2.1-.4.2-.6.2h-2.8c-.4,0-.6-.2-.6-.5s0-.2,0-.4l11.8-29.6c.2-.4.5-.7,1-.7h3.3c.5,0,.8.2,1,.7l11.9,29.8ZM76.9,17.1h-.2l-5.6,14.4h11.5l-5.6-14.4Z"/>
    <path class="st0" d="M117.1,39.5c.4,0,.7.2.7.7v2.5c0,.4-.2.7-.7.7h-20.6c-.4,0-.7-.2-.7-.7V12.7c0-.4.2-.7.7-.7h20.1c.4,0,.7.2.7.7v2.5c0,.4-.2.7-.7.7h-16.5v9.8h12.1c.4,0,.7.2.7.7v2.5c0,.4-.2.7-.7.7h-12.1v10.1h17Z"/>
    <path class="st0" d="M146.2,12c.4,0,.7.2.7.7v2.7c0,.4-.2.7-.7.7h-10.3v26.6c0,.4-.2.7-.7.7h-2.9c-.4,0-.7-.2-.7-.7v-26.6h-10.3c-.4,0-.7-.2-.7-.7v-2.7c0-.4.2-.7.7-.7h24.8Z"/>
    <path class="st0" d="M176.3,42.2c.2.2.3.4.3.5s0,.3-.2.4c-.1.1-.3.2-.5.2h-3.4c-.3,0-.5,0-.7-.1-.2,0-.4-.2-.5-.4l-11.4-13.1h-3.7v13c0,.4-.2.7-.7.7h-2.9c-.4,0-.7-.2-.7-.7V12.7c0-.4.2-.7.7-.7h15.4c2.7,0,4.6.6,5.8,1.8,1.2,1.2,1.8,3.1,1.8,5.8v2.5c0,2.7-.6,4.6-1.8,5.8-1.2,1.2-3.1,1.8-5.8,1.8h-2.5v.2l10.8,12.3ZM156.2,15.8v10.1h11.6c1.2,0,2.1-.3,2.7-.9.6-.6.9-1.5.9-2.7v-2.9c0-1.2-.3-2.1-.9-2.7s-1.5-.9-2.7-.9h-11.6Z"/>
    <path class="st0" d="M191.3,43.5c-2.6,0-4.5-.7-5.8-2-1.3-1.3-2-3.3-2-5.8v-16.1c0-2.6.7-4.5,2-5.8,1.3-1.3,3.3-2,5.8-2h10.7c2.6,0,4.5.7,5.8,2,1.3,1.3,2,3.3,2,5.8v16.1c0,2.6-.7,4.5-2,5.8-1.3,1.3-3.3,2-5.8,2h-10.7ZM201.8,39.7c1.2,0,2.2-.3,2.8-1,.7-.7,1-1.6,1-2.8v-16.5c0-1.2-.3-2.2-1-2.8-.7-.7-1.6-1-2.8-1h-10.3c-1.2,0-2.2.3-2.8,1-.7.7-1,1.6-1,2.8v16.5c0,1.2.3,2.2,1,2.8.7.7,1.6,1,2.8,1h10.3Z"/>
    <path class="st0" d="M219.2,43.3c-.4,0-.7-.2-.7-.7V12.7c0-.4.2-.7.7-.7h3.7c.3,0,.5,0,.6.1.2,0,.3.3.5.5l15.1,23.9h.2V12.7c0-.4.2-.7.7-.7h2.9c.4,0,.7.2.7.7v29.9c0,.4-.2.7-.7.7h-3.7c-.3,0-.5,0-.6-.1-.2,0-.3-.3-.5-.5l-15.1-23.9h-.2v23.9c0,.4-.2.7-.7.7h-2.9Z"/>
  </g>
</svg>